<svg width="15" height="14" viewBox="0 0 15 14" fill="none" xmlns="http://www.w3.org/2000/svg">
    <path d="M14.375 7.61533L1.90656 7.61533L6.68094 12.6525C6.93094 12.9163 6.94063 13.3545 6.7025 13.6314C6.46469 13.908 6.06906 13.9191 5.81875 13.6553L0.366249 7.90229C0.130312 7.6406 -6.39586e-07 7.29307 -6.75702e-07 6.92303C-7.11783e-07 6.55334 0.130312 6.20546 0.377187 5.93235L5.81906 0.191113C5.94 0.0633845 6.095 3.9577e-05 6.25 3.95649e-05C6.415 3.9552e-05 6.58 0.0720381 6.70281 0.214998C6.94094 0.491917 6.93125 0.929798 6.68125 1.19356L1.88687 6.23073L14.375 6.23073C14.72 6.23073 15 6.54088 15 6.92303C15 7.30518 14.72 7.61533 14.375 7.61533Z" fill="#2C2C2C"/>
    </svg>
    