<svg width="15" height="14" viewBox="0 0 15 14" fill="none" xmlns="http://www.w3.org/2000/svg">
    <path d="M0.625001 7.61533L13.0934 7.61533L8.31906 12.6525C8.06906 12.9163 8.05937 13.3545 8.2975 13.6314C8.53531 13.908 8.93094 13.9191 9.18125 13.6553L14.6338 7.90229C14.8697 7.6406 15 7.29307 15 6.92303C15 6.55334 14.8697 6.20546 14.6228 5.93235L9.18094 0.191113C9.06 0.0633845 8.905 3.9577e-05 8.75 3.95649e-05C8.585 3.9552e-05 8.42 0.0720381 8.29719 0.214998C8.05906 0.491917 8.06875 0.929798 8.31875 1.19356L13.1131 6.23073L0.625001 6.23073C0.28 6.23073 7.13e-07 6.54088 6.75702e-07 6.92303C6.38404e-07 7.30518 0.28 7.61533 0.625001 7.61533Z" fill="#2C2C2C"/>
    </svg>
    